<?xml version="1.0" encoding="utf-8"?>
<?xml-stylesheet type="text/xsl" href="rss1.xsl"?>
<rss version="2.0" xmlns:atom="http://www.w3.org/2005/Atom" xmlns:content="http://purl.org/rss/1.0/modules/content/" xmlns:dc="http://purl.org/dc/elements/1.1/" xmlns:media="http://search.yahoo.com/mrss/">
<channel>
 <title>Getty</title>
 <link>http://www.gettyimg.com/</link>
 <atom:link href="http://www.gettyimg.com/" rel="self" type="application/rss+xml" />

 
                <item>
                <title><![CDATA[【PRORES HD】Taylor Swift - Look What You Made Me Do (4K ProRes)]]></title>
                <link><![CDATA[https://sharemania.us/threads/taylor-swift-look-what-you-made-me-do-4k-prores.220824/]]></link>
                <description><![CDATA[<article>
<blockquote class="messageText SelectQuoteContainer ugc baseHtml">
<img src="https://thumbs2.imgbox.com/45/c4/Iye0w2KF_t.jpg" class="bbCodeImage LbImage" alt="[​IMG]" data-url="https://thumbs2.imgbox.com/45/c4/Iye0w2KF_t.jpg" style=""> <br>
<div class="ToggleTriggerAnchor bbCodeSpoilerContainer">
<button type="button" class="button bbCodeSpoilerButton ToggleTrigger Tooltip JsOnly" data-target="> .SpoilerTarget"><span>Spoiler: <span class="SpoilerTitle">mediainfo</span></span></button>
<div class="SpoilerTarget bbCodeSpoilerText">General<br>
Complete name : I:\Taylor Swift - Look What You Made Me Do (4K ProRes).mov<br>
Format : MPEG-4<br>
Format profile : QuickTime<br>
Codec ID : qt 2005.03 (qt )<br>
File size : 22.4 GiB<br>
Duration : 4 min 16 s<br>
Overall bit rate mode : Variable<br>
Overall bit rate : 751 Mb/s<br>
Encoded date : UTC 2018-07-31 18:44:32<br>
Tagged date : UTC 2018-07-31 19:02:05<br>
Writing library : Apple QuickTime<br>
<br>
Video<br>
ID : 1<br>
Format : ProRes<br>
Format version : Version 0<br>
Format profile : 422 HQ<br>
Codec ID : apch<br>
Duration : 4 min 16 s<br>
Bit rate mode : Variable<br>
Bit rate : 749 Mb/s<br>
Width : 3 840 pixels<br>
Height : 2 160 pixels<br>
Display aspect ratio : 16:9<br>
Frame rate mode : Constant<br>
Frame rate : 23.976 (24000/1001) FPS<br>
Color space : YUV<br>
Chroma subsampling : 4:2:2<br>
Scan type : Progressive<br>
Bits/(Pixel*Frame) : 3.767<br>
Stream size : 22.4 GiB (100%)<br>
Writing library : arh0<br>
Language : English<br>
Encoded date : UTC 2018-07-31 18:44:32<br>
Tagged date : UTC 2018-07-31 19:02:05<br>
Color primaries : BT.709<br>
Transfer characteristics : BT.709<br>
Matrix coefficients : BT.709<br>
<br>
Audio<br>
ID : 2<br>
Format : PCM<br>
Format settings : Little / Signed<br>
Codec ID : in24<br>
Duration : 4 min 16 s<br>
Bit rate mode : Constant<br>
Bit rate : 2 304 kb/s<br>
Channel(s) : 2 channels<br>
Channel layout : L R<br>
Sampling rate : 48.0 kHz<br>
Bit depth : 24 bits<br>
Stream size : 70.5 MiB (0%)<br>
Language : English<br>
Encoded date : UTC 2018-07-31 18:44:32<br>
Tagged date : UTC 2018-07-31 19:02:05</div>
</div><br>
<div class="bbCodeBlock bbCodeVfcHH HiddenContent">
<div class="attribution type">Hidden Content:</div>
<blockquote>You must reply before you can see the hidden data contained here.</blockquote>
</div>
<div class="messageTextEndMarker">&nbsp;</div>
</blockquote>
</article>]]></description>
                <author><![CDATA[huyt6gg]]></author>
                </item>

                </channel></rss>